<?xml version="1.0" encoding="utf-8"?>
<!-- Generator: Adobe Illustrator 23.0.2, SVG Export Plug-In . SVG Version: 6.00 Build 0)  -->
<svg version="1.1" id="Layer_1" xmlns="http://www.w3.org/2000/svg" xmlns:xlink="http://www.w3.org/1999/xlink" x="0px" y="0px"
	 viewBox="0 0 4006.9 959.8" style="enable-background:new 0 0 4006.9 959.8;" xml:space="preserve">
<style type="text/css">
	.st0{fill:#10CFC9;}
	.st1{fill:#101820;}
	.st2{fill:none;}
</style>
<title>logo</title>
<path class="st0" d="M3713.8,395.8h-63.6c-7.2,0-13,5.8-13,13l0,0l0,0v170.9c0,8.8-7.2,16-16,16h-108.2c-8.8,0-16-7.2-16-16V64.3
	c0-8.8,7.2-16,16-16h245.3c66.4,0,117.4,14.9,153,44.8c35.6,29.9,53.5,73,53.5,129.4c0,39.8-9.1,73-27.4,99.5
	c-18.2,26.5-44.8,46.2-79.6,58.9l128,197.3c3.4,5.2,1.9,12.3-3.3,15.7c-1.8,1.2-4,1.8-6.2,1.8h-126.9c-6.1,0-11.6-3.2-14.7-8.4
	L3727,403.4C3724.3,398.7,3719.2,395.8,3713.8,395.8z M3637.1,281.6c0,7.2,5.8,13,13,13l0,0h84.1c30.4,0,52.5-5.5,66.4-16.6
	c13.8-11.1,20.7-28.7,20.7-53.1c0-23.8-6.9-41.2-20.7-52.3c-13.8-11.1-35.9-16.6-66.4-16.6h-84.1c-7.2,0-13,5.8-13,13L3637.1,281.6z
	"/>
<path class="st0" d="M2780.4,384.5c-25.8,56.5-83.6,91.5-145.6,88c-75.6-4.1-137.4-65.4-142.1-140.9
	c-5.3-83.1,57.8-154.8,140.9-160.1c62.4-4,120.8,31,146.8,87.9c2.8,6.3,9.1,10.3,16,10.3h108.3c6.9,0,12.6-5.6,12.6-12.6
	c0-1-0.1-2-0.4-3c-31.3-126.8-148.4-219.9-286.2-213.9c-145.5,6.3-263.6,125.1-269.2,270.7c-6.1,160.8,122.4,293,281.8,293
	c132.3,0,243.3-91.2,273.7-214.1c1.7-6.7-2.4-13.5-9.2-15.2c-1-0.2-2-0.4-3-0.4h-108.3C2789.5,374.2,2783.3,378.2,2780.4,384.5z"/>
<path class="st0" d="M3249.6,48.3h-145.8c-7.5,0-14.2,4.7-16.7,11.8l-182.9,520.4c-2.1,5.9,1,12.4,6.9,14.4c1.2,0.4,2.5,0.6,3.8,0.6
	h114.8c7.5,0,14.1-4.9,16.3-12.1l31-103c1.5-5.1,6.2-8.6,11.6-8.6l171.8-0.2c5.3,0,10,3.5,11.6,8.6l31.2,103.3
	c2.2,7.2,8.8,12.1,16.3,12.1h118.2c6.3,0,11.3-5.1,11.3-11.4c0-1.3-0.2-2.5-0.6-3.7L3266.3,60.2
	C3263.8,53.1,3257.1,48.3,3249.6,48.3z M3111.6,365.9l59.2-196.6c0.6-1.9,2.6-3,4.5-2.4c1.2,0.3,2.1,1.3,2.4,2.4l59.3,196.6
	c1.1,3.7-1,7.7-4.7,8.8c-0.7,0.2-1.4,0.3-2.1,0.3h-111.8c-3.9,0-7.1-3.2-7.1-7.1C3111.3,367.3,3111.4,366.6,3111.6,365.9
	L3111.6,365.9z"/>
<path class="st0" d="M1655.9,474.8c25.6-45.6,39.6-98.4,39.6-154.3c0-185-156.8-333.4-344.7-319.6
	C1191.4,12.6,1063.7,143,1055,302.6c-3.4,62.6,10.9,121.8,39.1,172.2c67.7,120.8,274.2,481.1,274.2,481.1c2.1,3.7,6.9,5,10.6,2.9
	c1.2-0.7,2.2-1.7,2.9-2.9C1381.7,955.9,1588.2,595.6,1655.9,474.8z M1375,540.6c-121.6,0-220.1-98.6-220.1-220.1
	s98.5-220.1,220.1-220.1s220.2,98.6,220.2,220.1S1496.6,540.6,1375,540.6L1375,540.6z"/>
<path class="st0" d="M1516.1,291.6h-29.1l-27.7-60.3c-3.1-6.6-9.7-10.9-17-10.9h-134.3c-7.3,0-13.9,4.3-17,10.9l-27.7,60.3h-29.2
	c-1.6,0-2.8,1.3-2.8,2.8c0,0.4,0.1,0.8,0.3,1.2l4.5,9.7c1.2,2.6,3.9,4.3,6.8,4.3h12.2l-4.6,10.1c-1.3,2.9-2,6-2,9.2v86.3
	c0,3,2.4,5.4,5.4,5.4l0,0h36.8c3,0,5.4-2.4,5.4-5.4v-24.5h158.3v24.5c0,3,2.4,5.4,5.4,5.4l0,0h36.8c3,0,5.4-2.4,5.4-5.4v-86.2
	c0-3.2-0.7-6.3-2-9.2l-4.6-10.1h12.2c2.9,0,5.6-1.7,6.8-4.3l4.4-9.7c0.6-1.4,0-3.1-1.4-3.8C1516.8,291.6,1516.5,291.6,1516.1,291.6
	L1516.1,291.6z M1306.1,243.7c1.8-3.8,5.6-6.3,9.8-6.3h118.3c4.2,0,8,2.4,9.8,6.3l22,47.9H1284L1306.1,243.7z M1290.3,360.2
	c-10.6,0-19.1-8.6-19.1-19.1s8.6-19.1,19.1-19.1s19.1,8.6,19.1,19.1l0,0C1309.4,351.6,1300.8,360.2,1290.3,360.2L1290.3,360.2z
	 M1459.7,360.2c-10.6,0-19.1-8.6-19.1-19.1s8.6-19.1,19.1-19.1s19.1,8.6,19.1,19.1l0,0C1478.8,351.7,1470.3,360.2,1459.7,360.2
	L1459.7,360.2z"/>
<path class="st1" d="M2183.4,48.3h110.7c8.8,0,16,7.2,16,16v79.2c0,8.8-7.1,16-16,16h-110.7c-8.8,0-16-7.2-16-16V64.3
	C2167.4,55.5,2174.6,48.3,2183.4,48.3z"/>
<path class="st1" d="M2183.4,220.3h110.7c8.8,0,16,7.2,16,16v343.4c0,8.8-7.1,16-16,16h-110.7c-8.8,0-16-7.2-16-16V236.3
	C2167.4,227.5,2174.6,220.3,2183.4,220.3z"/>
<path class="st1" d="M394,63.2c32.9,13.9,63.7,35.5,92.4,64.8c5.8,5.9,6.1,15.2,0.7,21.4l-64,73.9c-3,3.6-8.4,4-11.9,0.9
	c0,0,0,0,0,0c-0.5-0.4-0.9-0.9-1.3-1.4c-16.9-23.2-36.3-40.6-58.2-52.2c-24.6-13-54.1-19.5-88.3-19.5c-28.7,0-50.9,5-66.3,14.9
	s-23.2,23.2-23.2,39.8c0,13.8,8.2,25,24.5,33.6c16.3,8.6,44.1,16.4,83.3,23.6c75.7,13.8,129.8,34,162.1,60.5
	c32.3,26.5,48.5,63.9,48.5,112c0,34.8-9.9,65-29.9,90.4c-19.9,25.4-47.4,44.8-82.5,58c-35.1,13.3-74.8,19.9-119,19.9
	c-61.9,0-112.2-7.6-150.9-22.8c-34.3-13.4-65.3-33.9-91.1-60.1c-5.5-5.5-6.1-14.2-1.5-20.5l58.5-79.8c2.8-3.8,8.1-4.6,11.9-1.8
	c0.6,0.4,1.2,1,1.6,1.6c19.8,25.2,41.9,43.2,66.2,54.1c27.1,12.2,59.7,18.3,97.9,18.3c30.4,0,53.2-4.3,68.4-12.9
	c15.2-8.6,22.8-20.9,22.8-36.9c0-12.7-8.2-23.1-24.5-31.1c-16.3-8-43.5-15.6-81.7-22.8c-47-9.4-85.9-20.6-116.5-33.6
	c-30.7-13-54.4-30.5-71.3-52.7c-16.9-22.1-25.3-50.3-25.3-84.6s9.3-65,27.8-92.1C71.7,99.2,98.8,78,134.4,62.8S212.2,40,260.9,40
	C312.9,40,357.2,47.7,394,63.2z"/>
<path class="st1" d="M967.9,95.2c-36.5-31.2-88.7-46.8-156.7-46.9H575.8c-8.8,0-16,7.2-16,16v515.4c0,8.8,7.2,16,16,16h110.7
	c8.8,0,16-7.2,16-16v-165c0-5,4-9,9-9h99.7c68,0,120.2-15.3,156.7-46s54.7-73.9,54.7-129.8C1022.6,171.4,1004.4,126.4,967.9,95.2z
	 M857.2,283.4c-14.7,11.9-37.5,17.8-68.4,17.8h-77.3c-5,0-9-4-9-9V165.1c0-5,4-9,9-9h77.3c31,0,53.8,5.9,68.4,17.8
	c14.7,11.9,22,30,22,54.3C879.2,253.1,871.8,271.5,857.2,283.4z"/>
<path class="st1" d="M1625.2,55.2c29.4,27.8,54,60.2,72.9,96c2.4,4.7,7.2,7.6,12.5,7.6l66.3-0.1c5,0,9.1,4,9.1,9.1l0,0v412
	c0,8.8,7.2,16,16,16h110.7c8.8,0,16-7.2,16-16v-412c0-5,4.1-9.1,9.1-9.1h152.9c8.8,0,16-7.2,16-16V64.4c0-8.8-7.2-16-16-16
	l-462.8,0.3c-2.1,0-3.8,1.7-3.8,3.7C1624,53.5,1624.4,54.5,1625.2,55.2L1625.2,55.2z"/>
<rect y="-1037.6" class="st2" width="5082" height="2818.3"/>
</svg>
